<?xml version="1.0" encoding="iso-8859-1"?>
<!-- Generator: Adobe Illustrator 19.0.0, SVG Export Plug-In . SVG Version: 6.00 Build 0)  -->
<svg version="1.1" id="Capa_1" fill="#88bd4b" xmlns="http://www.w3.org/2000/svg" xmlns:xlink="http://www.w3.org/1999/xlink" x="0px" y="0px"
	 viewBox="0 0 376.8 376.8" style="enable-background:new 0 0 376.8 376.8;" xml:space="preserve">
<g>
	<g>
		<g>
			<path d="M321.6,55.2C287.6,21.2,240.4,0,188.4,0S89.2,21.2,55.2,55.2S0,136.4,0,188.4s21.2,99.2,55.2,133.2s81.2,55.2,133.2,55.2
				s99.2-21.2,133.2-55.2s55.2-81.2,55.2-133.2S355.6,89.2,321.6,55.2z M311.2,311.2C280,342.4,236.4,362,188.4,362
				S97.2,342.4,66,311.2c-31.6-31.6-50.8-74.8-50.8-122.8S34.4,97.2,66,66c31.2-31.6,74.4-50.8,122.4-50.8S279.6,34.8,311.2,66
				c31.2,31.2,50.8,74.8,50.8,122.4C362,236.4,342.4,279.6,311.2,311.2z"/>
			<path d="M292.4,84.4C266,58,229.2,41.2,188.4,41.2c-40.4,0-77.2,16.4-104,43.2c-26.4,26.4-43.2,63.2-43.2,104s16.8,77.2,43.2,104
				c26.8,26.4,63.6,42.8,104,42.8c40.4,0,77.2-16.4,104-43.2c26.4-26.4,43.2-63.2,43.2-104S318.8,111.2,292.4,84.4z M281.6,281.6
				C259.2,304,229.2,318,196,320v-18.8c0-4-3.2-7.6-7.6-7.6c-4,0-7.6,3.2-7.6,7.6V320c-33.6-2-63.6-16-85.6-38.4
				c-22.4-22.4-36.4-52.4-38.4-85.6h18.8c4,0,7.6-3.2,7.6-7.6c0-4-3.2-7.6-7.6-7.6H56.8c1.6-33.2,16-63.6,38.4-85.6
				c22.4-22.4,52.4-36.4,85.6-38.4v18.8c0,4,3.2,7.6,7.6,7.6c4,0,7.6-3.2,7.6-7.6V56.8c33.6,2,63.6,16,85.6,38.4
				c22.4,22.4,36.4,52.4,38.4,85.6h-18.8c-4,0-7.6,3.2-7.6,7.6c0,4,3.2,7.6,7.6,7.6H320C318,229.6,304,259.6,281.6,281.6z"/>
			<path d="M195.6,166v-61.2c0-4-3.2-7.6-7.6-7.6c-4,0-7.6,3.2-7.6,7.6V166c-3.2,1.2-6.4,2.8-8.8,5.2l-0.4,0.4
				c-2.4,2.4-4.4,5.6-5.6,9.2H120c-4,0-7.6,3.2-7.6,7.6c0,4,3.6,7.6,7.6,7.6h45.6c1.2,3.6,3.2,6.8,5.6,9.2
				c4.4,4.4,10.4,6.8,16.8,6.8s12.4-2.8,16.8-6.8c4.4-4.4,6.8-10.4,6.8-16.8c0-6.4-2.8-12.4-6.8-16.8
				C202.4,169.2,199.2,167.2,195.6,166z M194.4,194.4c-1.6,1.6-3.6,2.4-6,2.4c-2.4,0-4.8-0.8-6-2.4c-1.6-1.6-2.4-3.6-2.4-6
				c0-2.4,0.8-4.4,2.4-6c0,0,0,0,0.4-0.4c1.6-1.6,3.6-2.4,6-2.4c2.4,0,4.8,0.8,6,2.4c1.6,1.6,2.4,3.6,2.4,6
				C197.2,190.8,196,193.2,194.4,194.4z"/>
		</g>
	</g>
</g>
<g>
</g>
<g>
</g>
<g>
</g>
<g>
</g>
<g>
</g>
<g>
</g>
<g>
</g>
<g>
</g>
<g>
</g>
<g>
</g>
<g>
</g>
<g>
</g>
<g>
</g>
<g>
</g>
<g>
</g>
</svg>
