<?xml version="1.0" encoding="iso-8859-1"?>
<!-- Generator: Adobe Illustrator 19.0.0, SVG Export Plug-In . SVG Version: 6.00 Build 0)  -->
<svg version="1.1" fill="#FB9902" id="Capa_1" xmlns="http://www.w3.org/2000/svg" xmlns:xlink="http://www.w3.org/1999/xlink" x="0px" y="0px"
	 viewBox="0 0 512 512" style="enable-background:new 0 0 512 512;" xml:space="preserve">
<g>
	<g>
		<path d="M340.216,407.762l-44.449-44.61c-7.151-7.411-15.656-11.326-24.602-11.326c-8.947,0-17.612,3.938-25.046,11.373
			l-27.434,27.345l-2.377-1.279c-1.309-0.705-2.614-1.377-3.921-2.047l-2.171-1.116c-0.031-0.017-0.073-0.037-0.105-0.054
			c-3.064-1.534-5.714-2.86-8.291-4.455c-24.211-15.385-46.248-35.475-67.364-61.409c-10.258-12.976-17.112-23.806-22.216-35.099
			l-1.087-2.404l1.947-1.781c5.91-5.407,11.463-11.043,16.895-16.556l1.721-1.748c1.154-1.15,2.306-2.321,3.48-3.517
			c1.099-1.121,2.201-2.242,3.307-3.347c15.644-15.645,15.645-35.083,0-50.73l-22.462-22.458l-0.189-0.191
			c-2.319-2.324-4.717-4.727-6.833-6.988c-0.038-0.04-0.075-0.079-0.113-0.119c-4.686-4.842-9.75-9.996-15.052-14.897l-0.126-0.122
			c-7.14-7.042-15.588-10.764-24.439-10.764c-8.857,0-17.433,3.709-24.8,10.727c-0.068,0.066-0.137,0.133-0.204,0.201
			l-27.498,27.736c-9.715,9.715-15.253,21.56-16.468,35.271c-1.871,22.798,4.883,44.224,10.124,58.354
			c12.972,34.998,32.396,67.391,61.151,101.968c35.072,41.875,77.207,74.88,125.305,98.13c18.382,8.71,42.895,18.928,69.525,20.637
			c0.05,0.003,0.1,0.006,0.15,0.009c1.655,0.081,3.397,0.156,4.915,0.156c17.382,0,32.005-6.179,43.463-18.363
			c0.135-0.143,0.296-0.329,0.422-0.48c0.089-0.1,0.176-0.2,0.261-0.303c4.048-4.899,8.583-9.28,13.386-13.921l1.004-0.97
			c4.227-4.037,7.436-7.223,10.386-10.309c7.31-7.603,11.175-16.391,11.175-25.415C351.586,423.818,347.638,415.112,340.216,407.762
			z M325.973,444.465c-2.753,2.88-5.765,5.868-9.806,9.729l-1.045,1.009c-5.18,5.005-10.074,9.732-14.806,15.442
			c-0.035,0.04-0.07,0.082-0.106,0.123c-7.604,7.996-17.001,11.884-28.722,11.884c-1.068,0-2.542-0.064-3.857-0.129
			c-23.215-1.506-45.416-10.808-62.099-18.713c-45.461-21.976-85.366-53.242-118.585-92.905
			c-27.241-32.756-45.592-63.293-57.753-96.106c-4.58-12.344-10.489-30.934-8.949-49.698c0.783-8.844,4.378-16.525,10.713-22.861
			l27.42-27.657c2.499-2.357,6.391-5.118,10.909-5.118c4.413,0,8.104,2.736,10.423,5.031c0.031,0.03,0.063,0.061,0.094,0.091
			l0.244,0.235c0.052,0.05,0.103,0.099,0.155,0.146c4.947,4.57,9.782,9.49,14.272,14.13c2.317,2.472,4.807,4.968,7.216,7.382
			l22.668,22.665c7.866,7.867,7.866,14.581,0.003,22.444c-1.149,1.149-2.301,2.319-3.449,3.49c-1.109,1.128-2.214,2.253-3.385,3.421
			l-1.843,1.871c-5.19,5.268-10.558,10.715-16.088,15.773l-7.293,6.675c-3.188,2.919-4.141,7.556-2.361,11.494l4.07,9.008
			c5.813,12.862,13.462,24.991,24.801,39.328c0.029,0.037,0.059,0.073,0.088,0.109c22.521,27.67,46.15,49.175,72.238,65.745
			c0.029,0.018,0.06,0.037,0.089,0.056c3.35,2.078,6.667,3.741,9.887,5.353l2.135,1.099c1.194,0.612,2.379,1.22,3.571,1.862
			l8.921,4.803c3.881,2.092,8.675,1.39,11.8-1.722l32.707-32.602c2.521-2.52,6.459-5.525,10.914-5.525
			c4.297,0,7.945,2.857,10.249,5.255c0.042,0.043,0.084,0.086,0.126,0.129l44.554,44.716c2.505,2.48,5.49,6.396,5.49,10.966
			C331.584,437.633,328.544,441.791,325.973,444.465z"/>
	</g>
</g>
<g>
	<g>
		<path d="M222.1,428.597l-24.887-13.401c-1.168-0.629-2.334-1.228-3.472-1.81l-1.962-1.009c-0.04-0.022-0.08-0.042-0.121-0.063
			c-2.995-1.499-6.391-3.199-9.725-5.269l-0.248-0.156c-25.771-16.366-49.063-37.548-71.167-64.704l-0.249-0.31
			c-9.104-11.509-15.79-21.573-21.045-31.673c-2.548-4.899-8.587-6.807-13.486-4.256c-4.899,2.549-6.805,8.587-4.256,13.486
			c5.853,11.25,13.193,22.324,23.147,34.908l0.336,0.418c23.524,28.902,48.383,51.477,76.038,69.038l0.334,0.21
			c4.138,2.57,8.118,4.564,11.322,6.169l1.962,1.009c1.02,0.522,2.066,1.058,3.111,1.62l24.884,13.4
			c1.508,0.813,3.132,1.197,4.732,1.197c3.561,0,7.007-1.906,8.814-5.261C228.782,437.281,226.962,431.216,222.1,428.597z"/>
	</g>
</g>
<g>
	<g>
		<path d="M75.74,281.381c-0.131-0.63-0.32-1.26-0.57-1.87c-0.25-0.6-0.561-1.18-0.92-1.72c-0.36-0.55-0.78-1.06-1.24-1.52
			c-0.46-0.46-0.97-0.88-1.52-1.24c-0.54-0.36-1.12-0.67-1.73-0.92c-0.6-0.25-1.229-0.45-1.87-0.58c-1.29-0.26-2.62-0.26-3.91,0
			c-0.63,0.13-1.26,0.33-1.87,0.58c-0.6,0.25-1.18,0.559-1.72,0.92c-0.55,0.36-1.059,0.78-1.519,1.24
			c-0.46,0.46-0.88,0.97-1.25,1.52c-0.36,0.54-0.67,1.12-0.92,1.72c-0.25,0.61-0.44,1.24-0.57,1.87c-0.13,0.65-0.19,1.31-0.19,1.96
			c0,2.63,1.07,5.21,2.931,7.07c0.46,0.46,0.97,0.88,1.519,1.24c0.54,0.359,1.12,0.67,1.72,0.92c0.61,0.25,1.24,0.439,1.87,0.57
			c0.65,0.13,1.311,0.199,1.96,0.199c0.65,0,1.311-0.069,1.95-0.199c0.641-0.131,1.271-0.32,1.87-0.57
			c0.61-0.25,1.19-0.561,1.73-0.92c0.549-0.36,1.059-0.78,1.519-1.24s0.88-0.97,1.24-1.52c0.359-0.54,0.67-1.12,0.92-1.73
			c0.25-0.6,0.439-1.229,0.57-1.87c0.13-0.64,0.199-1.3,0.199-1.95S75.87,282.031,75.74,281.381z"/>
	</g>
</g>
<g>
	<g>
		<path d="M445.148,9.347H278.865c-36.862,0-66.853,29.99-66.853,66.854v118.085l-38.401,65.515
			c-1.813,3.092-1.832,6.918-0.05,10.028c1.782,3.11,5.093,5.028,8.677,5.028h30.52c4.841,32.137,32.642,56.853,66.106,56.853
			h166.283c36.862,0,66.853-29.99,66.853-66.853V76.201C512,39.338,482.01,9.347,445.148,9.347z M492.001,264.857H492
			c0,25.835-21.018,46.853-46.853,46.853H278.865c-25.835,0-46.853-21.018-46.853-46.853c0-5.522-4.478-10-10-10h-22.321
			l30.948-52.8c0.899-1.533,1.373-3.279,1.373-5.057V76.2c0-25.835,21.018-46.854,46.853-46.854h166.283
			c25.835,0,46.853,21.018,46.853,46.854V264.857z"/>
	</g>
</g>
<g>
	<g>
		<path d="M356.132,59.694c-5.522,0-10,4.477-10,10v20.233h-15.204V66.269c0-5.522-4.478-10-10-10c-5.522,0-10,4.478-10,10v23.658
			h-15.204V69.694c0-5.522-4.478-10-10-10c-5.522,0-10,4.477-10,10v30.233v7.691c0,20.521,15.076,37.732,35.204,42.091v21.4h-10.906
			c-5.523,0-10,4.477-10,10v82.51c0,16.375,13.864,29.697,30.906,29.697s30.906-13.322,30.906-29.697v-82.51c0-5.523-4.478-10-10-10
			h-10.906v-21.4c20.128-4.359,35.204-21.57,35.204-42.091v-7.691V69.694C366.132,64.172,361.655,59.694,356.132,59.694z
			 M331.835,191.11v72.51h-0.001c0,5.347-4.893,9.697-10.906,9.697c-6.014,0-10.906-4.351-10.906-9.697v-72.51H331.835z
			 M320.928,130.788c-13.05,0-23.815-9.165-25.08-20.86h50.16C344.744,121.623,333.978,130.788,320.928,130.788z"/>
	</g>
</g>
<g>
	<g>
		<path d="M437.464,47.74h-8.528c-27.831,0-50.474,21.594-50.474,48.136v92.389c0,4.546,3.036,8.377,7.189,9.592v65.763
			c0,16.375,13.864,29.697,30.906,29.697s30.906-13.322,30.906-29.697V57.74C447.464,52.217,442.987,47.74,437.464,47.74z
			 M398.462,95.876c0-15.059,12.879-27.393,29.002-28.104v110.492h-29.002V95.876z M427.465,263.62L427.465,263.62
			c-0.001,5.347-4.894,9.697-10.907,9.697c-6.014,0-10.906-4.351-10.906-9.697v-65.355h21.813V263.62z"/>
	</g>
</g>
<g>
</g>
<g>
</g>
<g>
</g>
<g>
</g>
<g>
</g>
<g>
</g>
<g>
</g>
<g>
</g>
<g>
</g>
<g>
</g>
<g>
</g>
<g>
</g>
<g>
</g>
<g>
</g>
<g>
</g>
</svg>
