<?xml version="1.0" encoding="iso-8859-1"?>
<!-- Generator: Adobe Illustrator 19.0.0, SVG Export Plug-In . SVG Version: 6.00 Build 0)  -->
<svg version="1.1" fill="#FB9902" id="Capa_1" xmlns="http://www.w3.org/2000/svg" xmlns:xlink="http://www.w3.org/1999/xlink" x="0px" y="0px"
	 viewBox="0 0 511.998 511.998" style="enable-background:new 0 0 511.998 511.998;" xml:space="preserve">
<g>
	<g>
		<path d="M492.272,143.206C446.105,54.874,355.572,0,255.999,0c-38.898,0-76.417,8.374-110.451,23.846
			c-36.92,16.781-69.732,41.917-95.754,73.772c-11.4,13.953-21.5,29.192-30.069,45.587c-1.623,3.104-1.503,6.83,0.315,9.823
			c0.021,0.034-0.001,0,0.021,0.034c0.021,0.033,0,0,0.021,0.033l208.703,343.59c5.819,9.586,15.988,15.31,27.203,15.313
			c0.003,0,0.005,0,0.009,0c11.216,0,21.391-5.723,27.218-15.311l208.742-343.658C493.775,150.036,493.895,146.309,492.272,143.206z
			 M119.722,277.655c7.995-5.114,24.802-14.9,34.424-20.458c2.692-1.555,4.507-4.273,4.913-7.355
			c0.405-3.082-0.646-6.177-2.843-8.376l-19.701-19.701c-1.912-1.912-2.086-4.97-0.406-7.114c1.338-1.708,2.802-3.359,4.349-4.906
			c10.211-10.211,23.813-15.816,38.228-15.777c14.439,0.037,27.987,5.711,38.148,15.976c20.325,20.533,20.624,54.218,0.667,75.091
			c-1.799,1.881-3.739,3.642-5.767,5.231c-2.146,1.683-5.208,1.51-7.12-0.402l-19.701-19.7c-2.198-2.198-5.29-3.247-8.375-2.843
			c-3.082,0.405-5.8,2.221-7.355,4.913c-9.37,16.22-16.519,28.252-20.352,34.258L119.722,277.655z M187.432,390.08
			c5.795-9.408,16.086-15.269,27.377-15.269c17.723,0,32.141,14.414,32.141,32.131c0,16.935-13.165,30.853-29.799,32.057
			L187.432,390.08z M325.152,389.116c-17.397-5.617-29.448-21.8-29.448-40.65c0-23.579,19.184-42.762,42.763-42.762
			c11.389,0,21.992,4.385,29.932,12.214L325.152,389.116z M378.975,300.506c-11.196-9.52-25.376-14.802-40.509-14.802
			c-34.607,0-62.763,28.155-62.763,62.762c0,26.055,15.7,48.638,38.869,58.071l-48.449,79.767c-2.2,3.62-5.89,5.696-10.125,5.696
			c-0.001,0-0.003,0-0.004,0c-4.231-0.001-7.917-2.075-10.113-5.693l-17.611-28.994c22.246-5.951,38.68-26.273,38.68-50.37
			c0-28.745-23.39-52.131-52.141-52.131c-14.941,0-28.8,6.334-38.502,16.954l-27.002-44.457c0.512-0.011,1.025-0.026,1.542-0.08
			c5.668-0.583,10.71-3.649,13.831-8.411c3.461-5.277,9.466-15.365,15.284-25.321l10.51,10.51c9.056,9.057,23.502,9.917,33.601,2
			c2.776-2.176,5.428-4.581,7.884-7.15c13.317-13.929,20.557-32.281,20.384-51.674c-0.173-19.39-7.735-37.612-21.293-51.309
			c-13.933-14.076-32.511-21.855-52.311-21.906c-0.065,0-0.129,0-0.194,0c-19.729,0-38.271,7.679-52.227,21.635
			c-2.114,2.115-4.116,4.373-5.948,6.71c-7.913,10.096-7.051,24.538,2.005,33.594l10.512,10.511
			c-8.66,5.063-18.28,10.771-23.961,14.403l-40.135-66.076c49.361-60.734,117.234-95.429,187.21-95.429
			c2.233,0,4.463,0.036,6.691,0.106v94.73c0,21.034,17.112,38.146,38.147,38.146c6.564,0,12.748-1.667,18.147-4.6v4.927
			c0,21.034,17.112,38.147,38.146,38.147s38.147-17.113,38.147-38.147V227.7c5.399,2.932,11.583,4.6,18.147,4.6
			c2.54,0,5.021-0.255,7.423-0.731L378.975,300.506z M431.571,194.153c0,10.006-8.141,18.146-18.146,18.146
			c-10.007,0-18.147-8.141-18.147-18.146c0-5.523-4.478-10-10-10c-5.522,0-10,4.477-10,10v38.474
			c0,10.006-8.141,18.147-18.147,18.147c-10.006,0-18.146-8.141-18.146-18.147v-38.474h-0.001v-44.162c0-5.523-4.478-10-10-10
			c-5.522,0-10,4.477-10,10v44.162c0,10.006-8.141,18.146-18.147,18.146c-10.006,0-18.147-8.141-18.147-18.146V101.01
			c1.373,0.174,2.743,0.372,4.113,0.573c0.397,0.058,0.795,0.11,1.192,0.17c1.511,0.23,3.02,0.479,4.526,0.742
			c0.247,0.043,0.494,0.086,0.741,0.129c50.965,9.06,99.329,36.464,138.309,78.699V194.153z M454.186,176.68
			c-1.64-1.919-3.308-3.811-4.992-5.686c-0.064-0.076-0.122-0.156-0.188-0.23c-1.146-1.274-2.307-2.525-3.469-3.776
			c-0.108-0.116-0.214-0.235-0.322-0.351c-30.237-32.44-65.753-56.652-103.842-71.252c-0.145-0.056-0.29-0.112-0.435-0.168
			c-0.993-0.379-1.987-0.755-2.984-1.121c-1.5-0.554-3.004-1.092-4.509-1.615c-0.172-0.06-0.345-0.117-0.517-0.176
			c-25.033-8.63-50.775-12.991-76.929-12.991c-40.367,0-79.754,10.373-117.066,30.831c-30.064,16.484-57.873,39.323-81.118,66.53
			l-17.704-29.146c8.286-15.031,17.986-28.964,28.879-41.676c22.128-25.819,49.187-46.595,79.398-61.235
			c32.903-15.942,69.543-24.613,107.613-24.613c90.224,0,172.432,48.72,215.891,127.525L454.186,176.68z"/>
	</g>
</g>
<g>
	<g>
		<path d="M398.09,87.2c-0.13-0.64-0.32-1.27-0.57-1.87c-0.25-0.6-0.56-1.18-0.92-1.73c-0.37-0.54-0.79-1.05-1.25-1.52
			c-0.46-0.46-0.97-0.87-1.52-1.24c-0.54-0.36-1.12-0.67-1.721-0.92c-0.609-0.25-1.229-0.44-1.869-0.57c-1.29-0.26-2.62-0.26-3.91,0
			c-0.641,0.13-1.271,0.32-1.87,0.57c-0.61,0.25-1.19,0.56-1.73,0.92c-0.54,0.37-1.06,0.78-1.52,1.24
			c-1.86,1.87-2.93,4.44-2.93,7.08c0,0.65,0.069,1.3,0.199,1.95c0.13,0.64,0.321,1.27,0.571,1.87c0.25,0.6,0.56,1.18,0.92,1.73
			c0.36,0.54,0.78,1.05,1.24,1.52c0.46,0.46,0.98,0.87,1.52,1.24c0.54,0.36,1.12,0.67,1.73,0.92c0.6,0.25,1.23,0.44,1.87,0.57
			c0.64,0.13,1.3,0.2,1.95,0.2c0.659,0,1.31-0.07,1.96-0.2c0.64-0.13,1.26-0.32,1.869-0.57c0.601-0.25,1.181-0.56,1.721-0.92
			c0.55-0.37,1.06-0.78,1.52-1.24c0.47-0.47,0.88-0.98,1.25-1.52c0.36-0.55,0.67-1.13,0.92-1.73c0.25-0.6,0.44-1.23,0.57-1.87
			c0.13-0.65,0.19-1.3,0.19-1.95C398.28,88.5,398.218,87.85,398.09,87.2z"/>
	</g>
</g>
<g>
	<g>
		<path d="M366.573,63.394c-33.718-18.356-71.954-28.057-110.574-28.057c-50.932,0-99.198,16.182-139.582,46.795
			c-4.401,3.337-5.264,9.609-1.928,14.01c1.967,2.595,4.954,3.96,7.976,3.96c2.105,0,4.227-0.662,6.034-2.031
			c36.878-27.956,80.967-42.733,127.5-42.733c35.29,0,70.22,8.86,101.012,25.622c4.853,2.641,10.925,0.848,13.564-4.002
			C373.216,72.107,371.424,66.034,366.573,63.394z"/>
	</g>
</g>
<g>
</g>
<g>
</g>
<g>
</g>
<g>
</g>
<g>
</g>
<g>
</g>
<g>
</g>
<g>
</g>
<g>
</g>
<g>
</g>
<g>
</g>
<g>
</g>
<g>
</g>
<g>
</g>
<g>
</g>
</svg>
