<?xml version="1.0" encoding="iso-8859-1"?>
<!-- Generator: Adobe Illustrator 19.0.0, SVG Export Plug-In . SVG Version: 6.00 Build 0)  -->
<svg version="1.1" fill="#FB9902" id="Capa_1" xmlns="http://www.w3.org/2000/svg" xmlns:xlink="http://www.w3.org/1999/xlink" x="0px" y="0px"
	 viewBox="0 0 512 512" style="enable-background:new 0 0 512 512;" xml:space="preserve">
<g>
	<g>
		<path d="M451.732,136.637h-52.569V29.13c0-2.652-1.054-5.196-2.929-7.071l-19.13-19.13C375.227,1.054,372.685,0,370.033,0h-25.87
			H167.839h-21.277c-2.652,0-5.196,1.054-7.071,2.929l-23.723,23.723c-1.875,1.875-2.929,4.419-2.929,7.071v102.914H60.27
			c-5.523,0-10,4.477-10,10V502c0,5.523,4.477,10,10,10h391.461c5.522,0,10-4.477,10-10V146.637
			C461.732,141.114,457.253,136.637,451.732,136.637z M354.161,20h11.728l13.272,13.272v134.506h-25V20z M177.839,20h156.322v25
			H177.839V20z M177.839,65h156.322v71.637H177.839V65z M132.839,37.865L150.704,20h7.135v147.778h-25V37.865z M70.269,156.637
			h42.57v21.142c0,5.523,4.477,10,10,10h45c5.523,0,10-4.477,10-10v-21.142h156.322v21.142c0,5.523,4.478,10,10,10h45
			c5.522,0,10-4.477,10-10v-21.142h42.569V201H70.269V156.637z M419.292,492V298.578c0-5.523-4.478-10-10-10
			c-5.522,0-10,4.477-10,10V492H112.709V298.578c0-5.523-4.477-10-10-10s-10,4.477-10,10V492h-22.44V221H441.73v271H419.292z"/>
	</g>
</g>
<g>
	<g>
		<path d="M419.101,259.12c-0.13-0.64-0.33-1.27-0.58-1.87c-0.25-0.61-0.55-1.19-0.92-1.73c-0.359-0.55-0.78-1.06-1.24-1.52
			c-0.46-0.46-0.97-0.88-1.52-1.25c-0.54-0.36-1.12-0.66-1.72-0.91c-0.61-0.25-1.24-0.45-1.88-0.57c-1.29-0.26-2.61-0.26-3.9,0
			c-0.64,0.12-1.271,0.32-1.87,0.57c-0.61,0.25-1.189,0.55-1.729,0.91c-0.551,0.37-1.06,0.79-1.521,1.25
			c-0.46,0.46-0.88,0.97-1.24,1.52c-0.359,0.54-0.67,1.12-0.92,1.73c-0.25,0.6-0.45,1.23-0.569,1.87c-0.131,0.64-0.2,1.3-0.2,1.95
			s0.069,1.31,0.2,1.95c0.119,0.64,0.319,1.27,0.569,1.87c0.25,0.61,0.561,1.19,0.92,1.73c0.36,0.55,0.78,1.06,1.24,1.52
			c0.46,0.46,0.97,0.88,1.521,1.24c0.54,0.36,1.119,0.67,1.729,0.92c0.6,0.25,1.23,0.44,1.87,0.57s1.3,0.2,1.95,0.2
			c0.65,0,1.31-0.07,1.95-0.2s1.27-0.32,1.88-0.57c0.6-0.25,1.18-0.56,1.72-0.92c0.55-0.36,1.06-0.78,1.52-1.24
			c0.46-0.46,0.881-0.97,1.24-1.52c0.37-0.54,0.67-1.12,0.92-1.73c0.25-0.6,0.45-1.23,0.58-1.87c0.13-0.64,0.19-1.3,0.19-1.95
			S419.229,259.76,419.101,259.12z"/>
	</g>
</g>
<g>
	<g>
		<path d="M112.51,259.12c-0.13-0.64-0.32-1.27-0.57-1.88c-0.25-0.6-0.56-1.18-0.92-1.72c-0.36-0.55-0.78-1.06-1.24-1.52
			c-0.46-0.46-0.97-0.88-1.52-1.25c-0.54-0.36-1.12-0.66-1.73-0.91c-0.6-0.25-1.23-0.45-1.87-0.57c-3.25-0.66-6.7,0.41-9.02,2.73
			c-0.46,0.46-0.88,0.97-1.24,1.52c-0.37,0.54-0.67,1.12-0.92,1.72c-0.25,0.61-0.45,1.24-0.57,1.88c-0.13,0.64-0.2,1.3-0.2,1.95
			s0.07,1.31,0.2,1.95c0.12,0.64,0.32,1.27,0.57,1.87c0.25,0.61,0.55,1.19,0.92,1.73c0.36,0.55,0.78,1.06,1.24,1.52
			c1.86,1.86,4.43,2.93,7.07,2.93c0.65,0,1.31-0.07,1.95-0.2c0.64-0.12,1.27-0.32,1.87-0.57c0.61-0.25,1.19-0.56,1.73-0.92
			c0.55-0.36,1.06-0.78,1.52-1.24c0.46-0.46,0.88-0.97,1.24-1.52c0.36-0.54,0.67-1.12,0.92-1.73c0.25-0.6,0.44-1.23,0.57-1.87
			s0.2-1.3,0.2-1.95S112.641,259.76,112.51,259.12z"/>
	</g>
</g>
<g>
	<g>
		<path d="M367.268,392.933c-6.444-6.445-15.013-9.994-24.126-9.994c-6.186,0-12.121,1.635-17.311,4.701l-29.115-29.116
			c-5.719-13.546-9.122-38.791-10.257-52.065c-0.008-0.085-0.016-0.169-0.025-0.254c-1.969-17.685-10.114-34.487-22.938-47.311
			c-14.621-14.621-33.824-22.926-54.072-23.387c-20.305-0.46-39.259,7.028-53.327,21.096l-0.269,0.269
			c-28.978,28.979-27.95,77.157,2.291,107.398c12.822,12.82,29.625,20.965,47.314,22.934c0.083,0.009,0.167,0.018,0.251,0.025
			c13.287,1.141,38.545,4.552,52.067,10.26l29.123,29.123c-7.689,13.076-5.929,30.216,5.284,41.43
			c6.652,6.651,15.39,9.977,24.127,9.977s17.475-3.326,24.127-9.977c4.87-4.87,8.073-10.948,9.356-17.5
			c6.552-1.284,12.631-4.487,17.5-9.357C380.57,427.882,380.57,406.236,367.268,392.933z M269.06,369.833l-7.642,7.643
			c-19.282-6.858-47.526-9.611-53.892-10.162c-13.151-1.492-25.671-7.592-35.266-17.187c-22.443-22.444-23.471-57.935-2.291-79.114
			l0.269-0.27c10.167-10.168,23.933-15.6,38.729-15.243c15.079,0.343,29.421,6.57,40.385,17.534
			c9.596,9.597,15.697,22.115,17.189,35.262c0.549,6.365,3.291,34.594,10.159,53.897L269.06,369.833z M353.125,427.041
			c-3.085,3.086-7.347,4.553-11.7,4.025c-3.048-0.368-6.102,0.683-8.275,2.856c-2.173,2.173-3.227,5.225-2.855,8.275
			c0.527,4.35-0.939,8.614-4.025,11.7c-5.505,5.505-14.464,5.505-19.969,0s-5.505-14.463,0-19.968
			c0.202-0.203,0.412-0.395,0.623-0.582c2.058-1.83,3.271-4.428,3.352-7.18c0.08-2.753-0.978-5.417-2.925-7.364l-29.487-29.488
			l10.681-10.681l29.487,29.488c1.944,1.947,4.592,3.014,7.359,2.926c2.752-0.08,5.349-1.29,7.18-3.346
			c0.19-0.213,0.383-0.424,0.587-0.628c2.667-2.667,6.213-4.136,9.984-4.136c3.772,0,7.316,1.469,9.983,4.135
			C358.63,412.578,358.63,421.536,353.125,427.041z"/>
	</g>
</g>
<g>
</g>
<g>
</g>
<g>
</g>
<g>
</g>
<g>
</g>
<g>
</g>
<g>
</g>
<g>
</g>
<g>
</g>
<g>
</g>
<g>
</g>
<g>
</g>
<g>
</g>
<g>
</g>
<g>
</g>
</svg>
