<?xml version="1.0" encoding="UTF-8" standalone="no"?>
<svg
   xmlns:dc="http://purl.org/dc/elements/1.1/"
   xmlns:cc="http://creativecommons.org/ns#"
   xmlns:rdf="http://www.w3.org/1999/02/22-rdf-syntax-ns#"
   xmlns:svg="http://www.w3.org/2000/svg"
   xmlns="http://www.w3.org/2000/svg"
   id="svg57"
   version="1.1"
   viewBox="0 0 210 200"
   height="200mm"
   width="210mm">
  <defs
     id="defs51" />
  <metadata
     id="metadata54">
    <rdf:RDF>
      <cc:Work
         rdf:about="">
        <dc:format>image/svg+xml</dc:format>
        <dc:type
           rdf:resource="http://purl.org/dc/dcmitype/StillImage" />
        <dc:title></dc:title>
      </cc:Work>
    </rdf:RDF>
  </metadata>
  <g
     transform="translate(0,-97)"
     id="layer1">
    <g
       transform="matrix(-1.4665249,0,0,-1.4415995,593.32318,671.99542)"
       id="Layer1001">
      <path
         id="path25"
         style="fill:#000000;fill-rule:evenodd"
         d="m 318.4066,325.4429 c 19.4173,0 35.1587,15.7414 35.1587,35.1587 0,19.4174 -15.7414,35.1587 -35.1587,35.1587 -19.4174,0 -35.1587,-15.7413 -35.1587,-35.1587 0,-19.4173 15.7413,-35.1587 35.1587,-35.1587 z m -12.7897,40.173 c 2.072,0 3.7521,1.68 3.7521,3.7521 0,2.072 -1.6801,3.7521 -3.7521,3.7521 -2.0721,0 -3.7521,-1.6801 -3.7521,-3.7521 0,-2.0721 1.68,-3.7521 3.7521,-3.7521 z m -1.8674,-14.7277 c 2.072,0 3.752,1.6801 3.752,3.7521 0,2.072 -1.68,3.7521 -3.752,3.7521 -2.0721,0 -3.7521,-1.6801 -3.7521,-3.7521 0,-2.072 1.68,-3.7521 3.7521,-3.7521 z m 28.2103,0.4148 c 2.0721,0 3.7521,1.68 3.7521,3.752 0,2.0721 -1.68,3.7521 -3.7521,3.7521 -2.072,0 -3.752,-1.68 -3.752,-3.7521 0,-2.072 1.68,-3.752 3.752,-3.752 z m 0.207,13.4827 c 2.072,0 3.7521,1.68 3.7521,3.752 0,2.0721 -1.6801,3.7521 -3.7521,3.7521 -2.072,0 -3.7521,-1.68 -3.7521,-3.7521 0,-2.072 1.6801,-3.752 3.7521,-3.752 z m -13.8974,8.2975 c 2.072,0 3.752,1.6801 3.752,3.7521 0,2.072 -1.68,3.7521 -3.752,3.7521 -2.0721,0 -3.7521,-1.6801 -3.7521,-3.7521 0,-2.072 1.68,-3.7521 3.7521,-3.7521 z m -0.4148,-30.4917 c 2.0721,0 3.7521,1.68 3.7521,3.7521 0,2.072 -1.68,3.752 -3.7521,3.752 -2.072,0 -3.752,-1.68 -3.752,-3.752 0,-2.0721 1.68,-3.7521 3.752,-3.7521 z m 0.4148,15.3493 c 2.072,0 3.752,1.6801 3.752,3.7521 0,2.072 -1.68,3.7521 -3.752,3.7521 -2.0721,0 -3.7521,-1.6801 -3.7521,-3.7521 0,-2.072 1.68,-3.7521 3.7521,-3.7521 z" />
      <path
         id="path29"
         style="fill:#000000;fill-rule:evenodd"
         d="m 335.1627,321.3426 16.7821,-21.1141 c 0.1323,-0.2302 21.1715,-36.2534 28.4015,-36.2534 5.2342,0 9.4765,4.2423 9.4765,9.4764 0,5.2348 -23.3376,29.3482 -31.0551,35.8415 l -15.0083,18.8826 c -1.7758,2.2343 -5.0552,2.6083 -7.2888,0.8332 l -0.4747,-0.3774 c -2.2342,-1.7758 -2.6089,-5.0545 -0.8332,-7.2888 z m 40.3269,-44.8399 c 2.8784,-3.3017 5.9702,-5.3199 6.9012,-4.5069 0.9332,0.8136 -0.6461,4.1497 -3.5265,7.4521 -2.8791,3.3011 -5.9701,5.3206 -6.9019,4.507 -0.9331,-0.8136 0.6469,-4.1491 3.5272,-7.4522 z" />
    </g>
  </g>
</svg>
