<?xml version="1.0" encoding="UTF-8" standalone="no"?>
<!-- Created with Inkscape (http://www.inkscape.org/) -->

<svg
   xmlns:dc="http://purl.org/dc/elements/1.1/"
   xmlns:cc="http://creativecommons.org/ns#"
   xmlns:rdf="http://www.w3.org/1999/02/22-rdf-syntax-ns#"
   xmlns:svg="http://www.w3.org/2000/svg"
   xmlns="http://www.w3.org/2000/svg"
   xmlns:sodipodi="http://sodipodi.sourceforge.net/DTD/sodipodi-0.dtd"
   xmlns:inkscape="http://www.inkscape.org/namespaces/inkscape"
   width="210mm"
   height="297mm"
   viewBox="0 0 210 297"
   version="1.1"
   id="svg3600"
   inkscape:version="0.92.2 (5c3e80d, 2017-08-06)"
   sodipodi:docname="back3.svg">
  <defs
     id="defs3594">
    <clipPath
       clipPathUnits="userSpaceOnUse"
       id="clipPath1832">
      <path
         d="M 0,500 H 500 V 0 H 0 Z"
         id="path1830"
         inkscape:connector-curvature="0" />
    </clipPath>
  </defs>
  <sodipodi:namedview
     id="base"
     pagecolor="#ffffff"
     bordercolor="#666666"
     borderopacity="1.0"
     inkscape:pageopacity="0.0"
     inkscape:pageshadow="2"
     inkscape:zoom="0.35"
     inkscape:cx="400"
     inkscape:cy="560"
     inkscape:document-units="mm"
     inkscape:current-layer="layer1"
     showgrid="false"
     inkscape:window-width="1366"
     inkscape:window-height="705"
     inkscape:window-x="-4"
     inkscape:window-y="-4"
     inkscape:window-maximized="1" />
  <metadata
     id="metadata3597">
    <rdf:RDF>
      <cc:Work
         rdf:about="">
        <dc:format>image/svg+xml</dc:format>
        <dc:type
           rdf:resource="http://purl.org/dc/dcmitype/StillImage" />
        <dc:title></dc:title>
      </cc:Work>
    </rdf:RDF>
  </metadata>
  <g
     inkscape:label="Layer 1"
     inkscape:groupmode="layer"
     id="layer1">
    <g
       id="g1828"
       clip-path="url(#clipPath1832)"
       transform="matrix(1.1965736,0,0,-1.2126444,-9.1962384,340.32534)">
      <g
         id="g1882"
         transform="translate(139.5093,69.3742)">
        <path
           d="m 0,0 c -0.449,-0.961 -0.997,-1.866 -1.567,-2.755 0.628,2.921 0.73,5.974 -0.001,8.861 -0.795,3.139 -2.634,6.379 -5.718,7.723 -0.186,0.081 -0.32,-0.145 -0.16,-0.27 2.65,-2.074 4.559,-4.829 5.285,-8.14 0.69,-3.143 0.33,-6.306 -0.222,-9.431 -0.071,-0.109 -0.142,-0.219 -0.213,-0.329 0.581,2.365 0.623,4.864 0.086,7.283 -1.029,4.632 -4.314,8.222 -7.872,11.155 -3.922,3.234 -7.911,6.276 -11.295,10.103 -3.687,4.17 -6.857,8.933 -9.15,14.012 -0.107,0.237 -0.521,0.07 -0.425,-0.176 3.461,-8.883 8.975,-16.413 16.291,-22.521 3.323,-2.775 6.965,-5.589 9.116,-9.428 2.228,-3.977 2.373,-9.004 0.276,-13.071 -1.124,-2.181 -2.876,-4.008 -4.966,-5.286 -0.996,-0.609 -2.056,-1.101 -3.172,-1.447 -0.458,-0.142 -0.917,-0.246 -1.369,-0.359 0.804,1.036 1.494,2.198 2.168,3.291 0.797,1.293 1.545,2.617 1.967,4.086 0.811,2.828 0.578,6.254 -0.779,8.88 -0.079,0.154 -0.28,0.044 -0.26,-0.105 0.396,-2.924 1.186,-5.72 0.341,-8.659 -0.228,-0.795 -0.545,-1.547 -0.913,-2.274 0.164,0.687 0.276,1.392 0.328,2.112 0.308,4.212 -1.262,8.278 -3.347,11.854 -2.433,4.175 -5.338,8.056 -7.776,12.235 -1.261,2.163 -2.471,4.359 -3.602,6.593 -1.147,2.265 -2.161,4.586 -3.36,6.825 -0.199,0.371 -0.786,0.078 -0.657,-0.311 1.292,-3.905 3.258,-7.623 5.15,-11.266 1.9,-3.658 3.986,-7.207 6.149,-10.715 3.774,-6.12 8.373,-14.43 3.189,-21.139 -1.972,-2.553 -4.873,-4.307 -7.911,-5.296 -3.343,-1.087 -7.187,-1.481 -10.044,0.945 -6.206,5.27 -3.629,15.101 -1.836,21.809 1.141,4.27 2.447,8.499 3.313,12.838 0.851,4.263 1.405,8.798 0.473,13.092 -0.07,0.325 -0.585,0.236 -0.571,-0.09 0.18,-4.364 -0.153,-8.588 -1.126,-12.849 -0.975,-4.271 -2.354,-8.44 -3.542,-12.654 -2.047,-7.258 -4.75,-16.622 1.067,-22.884 0.499,-0.538 1.037,-0.998 1.606,-1.385 -0.618,-0.011 -1.235,-0.032 -1.852,-0.045 -2.399,1.362 -4.095,4.529 -4.798,6.878 -1.314,4.391 -0.278,8.649 0.398,13.035 0.017,0.105 -0.158,0.157 -0.203,0.061 -2.022,-4.353 -2.252,-9.899 -0.553,-14.395 0.689,-1.822 2.11,-4.186 3.942,-5.589 -0.739,0.005 -1.478,0.037 -2.219,0.13 -2.083,0.26 -4.178,0.878 -5.939,2.045 -3.868,2.565 -5.619,8.02 -5.606,12.458 0.03,10.031 8.739,17.243 13.598,25.178 2.593,4.234 4.806,9.43 3.763,14.477 -0.056,0.275 -0.493,0.209 -0.484,-0.068 0.166,-5.45 -1.729,-10.324 -4.841,-14.729 -3.021,-4.279 -6.771,-8.019 -9.598,-12.436 -2.624,-4.101 -4.563,-8.836 -4.206,-13.789 0.112,-1.544 0.395,-3.144 0.868,-4.695 -0.28,0.527 -0.588,1.043 -0.812,1.595 -0.412,1.014 -0.672,2.082 -0.788,3.169 -0.251,2.362 0.357,4.352 0.96,6.593 0.047,0.174 -0.204,0.34 -0.326,0.183 -1.38,-1.768 -1.68,-4.424 -1.473,-6.591 0.165,-1.728 0.693,-4.083 1.921,-5.532 -0.492,0.487 -0.959,1.006 -1.386,1.579 -1.406,1.884 -2.398,4.1 -2.839,6.408 -0.932,4.875 0.692,9.715 3.908,13.403 2.869,3.29 6.494,5.79 9.63,8.803 3.164,3.04 5.578,6.641 6.661,10.933 0.636,2.519 0.794,5.216 0.471,7.795 -0.246,1.96 -0.78,4.165 -1.821,5.925 1.605,-0.372 3.524,-0.133 4.997,0.284 0.693,0.196 2.413,0.854 2.953,1.745 0.15,-1.781 0.748,-3.597 1.325,-5.231 0.722,-2.046 1.672,-3.978 2.809,-5.826 2.334,-3.791 5.431,-7.157 9.066,-9.734 3.696,-2.62 7.952,-3.958 11.932,-6.03 1.963,-1.022 3.862,-2.266 5.227,-4.04 C 1.104,12.897 1.754,10.505 1.833,8.125 1.925,5.313 1.183,2.536 0,0 m -52.582,-11.885 c 0.075,-0.047 0.163,-0.019 0.221,0.041 0.045,-0.118 0.087,-0.238 0.134,-0.355 -0.119,0.103 -0.238,0.208 -0.355,0.314 m 16.207,57.708 c 0.685,0.299 1.4,0.384 2.141,0.429 0.585,0.035 1.453,0.242 2.013,0.09 1.054,-0.286 -0.655,-1.031 -1.095,-1.213 -0.725,-0.3 -1.489,-0.478 -2.265,-0.577 -0.857,-0.11 -1.723,-0.058 -2.582,-0.069 0.543,0.504 1.066,1.025 1.788,1.34 M -0.957,17.947 c -3.607,2.913 -8.222,4.029 -12.278,6.129 -4.09,2.116 -7.692,5.149 -10.53,8.769 -1.615,2.061 -2.95,4.309 -4.078,6.668 -1.16,2.426 -1.71,5.021 -2.707,7.494 -0.041,0.102 -0.192,0.055 -0.198,-0.043 -0.003,-0.06 -0.003,-0.121 -0.005,-0.182 -0.046,0.068 -0.098,0.137 -0.162,0.207 -0.557,0.601 -1.502,0.539 -2.246,0.561 -0.939,0.028 -1.916,0.068 -2.838,-0.146 -1.381,-0.319 -3.306,-1.328 -3.719,-2.82 -0.062,-0.059 -0.095,-0.15 -0.067,-0.266 0.002,-0.01 0.004,-0.019 0.007,-0.029 0,0 0,0 0,-0.001 -0.048,-0.063 -0.058,-0.157 -0.019,-0.225 -0.002,-0.07 -0.002,-0.142 0.003,-0.214 0.009,-0.13 0.088,-0.229 0.191,-0.276 0.545,-2.185 1.141,-4.261 1.28,-6.554 0.14,-2.317 -0.132,-4.637 -0.733,-6.875 -1.211,-4.506 -3.968,-7.981 -7.394,-11.04 -3.29,-2.937 -6.92,-5.551 -9.596,-9.104 -2.876,-3.818 -4.086,-8.633 -3.293,-13.355 0.766,-4.557 3.935,-9.758 8.459,-11.505 0.8,-1.272 1.781,-2.413 2.96,-3.33 1.942,-1.513 4.233,-2.251 6.651,-2.565 2.515,-0.327 5.271,-0.364 7.771,0.086 0.281,0.051 0.459,0.235 0.542,0.457 5.27,-1.914 12.088,0.709 16.102,4.265 0.038,0.033 0.073,0.069 0.11,0.102 1.878,-0.627 4.235,0.411 5.907,1.234 1.999,0.984 3.817,2.415 5.218,4.147 0.575,0.711 1.081,1.468 1.517,2.258 0.134,-0.063 0.294,-0.059 0.441,0.061 2.049,1.664 3.434,4.038 4.691,6.329 1.237,2.253 2.202,4.66 2.568,7.215 0.683,4.772 -0.739,9.466 -4.555,12.548"
           style="fill:#a3c773;fill-opacity:1;fill-rule:nonzero;stroke:none"
           id="path1884"
           inkscape:connector-curvature="0" />
      </g>
      <g
         id="g1886"
         transform="translate(55.5451,70.4946)">
        <path
           d="m 0,0 c 0.252,-1.186 0.192,-2.608 -0.626,-3.571 -0.874,-1.03 -2.359,-1.438 -3.667,-1.306 -1.301,0.131 -2.559,0.75 -3.37,1.789 -0.326,0.417 -0.528,0.862 -0.688,1.32 0.022,0.914 -0.019,1.827 0.371,2.691 0.53,1.175 1.591,1.994 2.823,2.334 C -2.639,3.951 -0.53,2.498 0,0 M -6.912,4.518 C -8.26,3.806 -9.317,2.662 -9.731,1.179 c -0.223,-0.798 -0.287,-1.771 0.011,-2.573 0.082,-0.683 0.353,-1.368 0.663,-1.918 0.671,-1.19 1.767,-2.12 3.037,-2.619 2.495,-0.979 5.749,-0.402 7.162,2.061 1.256,2.191 0.744,5.318 -0.81,7.234 -1.752,2.159 -4.865,2.411 -7.244,1.154"
           style="fill:#a3c773;fill-opacity:1;fill-rule:nonzero;stroke:none"
           id="path1888"
           inkscape:connector-curvature="0" />
      </g>
      <g
         id="g1890"
         transform="translate(107.2491,166.011)">
        <path
           d="m 0,0 c 0.252,-1.186 0.192,-2.608 -0.626,-3.571 -0.874,-1.03 -2.359,-1.438 -3.667,-1.306 -1.301,0.131 -2.559,0.75 -3.37,1.789 -0.326,0.417 -0.528,0.862 -0.688,1.32 0.022,0.914 -0.019,1.827 0.371,2.691 0.53,1.175 1.591,1.994 2.823,2.334 C -2.639,3.951 -0.53,2.498 0,0 M -6.912,4.518 C -8.26,3.806 -9.317,2.662 -9.731,1.179 c -0.223,-0.798 -0.287,-1.771 0.011,-2.573 0.082,-0.683 0.353,-1.368 0.663,-1.918 0.671,-1.19 1.767,-2.12 3.037,-2.619 2.495,-0.979 5.749,-0.402 7.162,2.061 1.256,2.191 0.744,5.318 -0.81,7.234 -1.752,2.159 -4.865,2.411 -7.244,1.154"
           style="fill:#a3c773;fill-opacity:1;fill-rule:nonzero;stroke:none"
           id="path1892"
           inkscape:connector-curvature="0" />
      </g>
      <g
         id="g1938"
         transform="translate(119.8335,270.5109)">
        <path
           d="m 0,0 c 0.817,-0.989 0.948,-2.275 0.625,-3.464 -0.766,1.421 -2.303,2.46 -3.634,3.241 -1.033,0.607 -2.119,1.104 -3.191,1.637 -0.499,0.248 -0.983,0.52 -1.462,0.8 C -6.3,2.137 -4.925,2.148 -3.581,1.886 -2.238,1.624 -0.893,1.081 0,0 m -0.321,-5.311 c -0.899,0.487 -1.933,0.707 -2.831,1.226 -1.06,0.612 -2.013,1.386 -2.878,2.25 -0.848,0.847 -1.611,1.777 -2.356,2.715 -0.381,0.479 -0.742,1.003 -1.132,1.498 0.057,-0.009 0.115,-0.015 0.172,-0.023 1.378,-1.325 3.337,-2.093 4.997,-2.929 0.909,-0.458 1.803,-0.958 2.619,-1.57 0.809,-0.607 1.441,-1.311 2.101,-2.038 C 0.341,-4.252 0.31,-4.322 0.276,-4.39 0.112,-4.721 -0.089,-5.033 -0.321,-5.311 m -2.866,0.247 c 0.696,-0.359 1.474,-0.748 2.268,-0.826 -0.598,-0.465 -1.329,-0.726 -2.158,-0.641 -1.384,0.142 -2.548,1.015 -3.384,2.079 -1.113,1.417 -1.742,3.113 -2.553,4.701 0.067,-0.084 0.135,-0.169 0.2,-0.252 0.83,-1.066 1.724,-2.092 2.727,-2.999 0.882,-0.797 1.843,-1.515 2.9,-2.062 m 0.971,7.823 C -3.639,3.222 -5.16,3.288 -6.644,3.355 -7.45,3.392 -8.256,3.429 -9.057,3.529 -9.829,3.626 -10.56,3.83 -11.34,3.798 c -0.334,-0.013 -0.455,-0.363 -0.209,-0.586 0.087,-0.079 0.18,-0.149 0.275,-0.214 -0.097,-0.081 -0.136,-0.218 -0.023,-0.341 2.005,-2.178 2.448,-5.224 4.12,-7.609 1.216,-1.734 3.347,-3.121 5.536,-2.486 2.232,0.647 3.575,3.255 3.51,5.467 -0.068,2.342 -1.983,4.045 -4.085,4.73"
           style="fill:#a3c773;fill-opacity:1;fill-rule:nonzero;stroke:none"
           id="path1940"
           inkscape:connector-curvature="0" />
      </g>
      <g
         id="g1942"
         transform="translate(36.1887,204.727)">
        <path
           d="m 0,0 c -1.162,-0.543 -2.44,-0.347 -3.51,0.263 1.568,0.386 2.959,1.613 4.048,2.706 0.847,0.848 1.6,1.774 2.385,2.678 0.365,0.422 0.75,0.822 1.141,1.216 C 3.648,5.563 3.313,4.229 2.723,2.994 2.133,1.759 1.27,0.593 0,0 m -5.061,1.642 c 0.697,0.748 1.169,1.694 1.896,2.433 0.859,0.873 1.847,1.601 2.9,2.222 1.033,0.61 2.124,1.114 3.219,1.601 C 3.513,8.147 4.11,8.365 4.687,8.618 4.665,8.565 4.644,8.511 4.622,8.457 2.995,7.455 1.76,5.752 0.535,4.354 -0.137,3.589 -0.845,2.849 -1.642,2.212 -2.432,1.581 -3.273,1.146 -4.142,0.689 -4.202,0.736 -4.261,0.783 -4.319,0.833 -4.599,1.075 -4.85,1.347 -5.061,1.642 m 0.957,2.712 C -4.626,3.771 -5.197,3.115 -5.472,2.366 c -0.3,0.696 -0.37,1.469 -0.08,2.249 0.485,1.305 1.622,2.213 2.861,2.756 C -1.04,8.093 0.76,8.277 2.5,8.664 2.402,8.62 2.303,8.576 2.206,8.534 0.967,7.997 -0.251,7.389 -1.381,6.645 -2.373,5.991 -3.31,5.241 -4.104,4.354 M 3.226,1.453 C 4.032,2.715 4.476,4.172 4.913,5.591 5.151,6.363 5.389,7.133 5.687,7.884 5.974,8.606 6.355,9.263 6.519,10.026 6.59,10.353 6.281,10.557 6.005,10.375 5.906,10.31 5.815,10.238 5.728,10.162 5.674,10.277 5.551,10.349 5.404,10.271 2.792,8.875 -0.267,9.21 -2.995,8.189 -4.979,7.446 -6.855,5.731 -6.79,3.453 c 0.067,-2.323 2.256,-4.276 4.413,-4.768 2.285,-0.521 4.413,0.905 5.603,2.768"
           style="fill:#a3c773;fill-opacity:1;fill-rule:nonzero;stroke:none"
           id="path1944"
           inkscape:connector-curvature="0" />
      </g>
      <g
         id="g1946"
         transform="translate(132.2002,127.0318)">
        <path
           d="M 0,0 C 1.256,0.258 2.454,-0.228 3.354,-1.07 1.739,-1.082 0.101,-1.953 -1.212,-2.763 -2.233,-3.392 -3.18,-4.118 -4.153,-4.815 -4.607,-5.14 -5.074,-5.441 -5.545,-5.733 c 0.706,1.168 1.341,2.388 2.202,3.453 0.86,1.063 1.97,1.998 3.343,2.28 m 4.542,-2.772 c -0.851,-0.566 -1.53,-1.376 -2.409,-1.926 -1.037,-0.65 -2.168,-1.129 -3.336,-1.489 -1.146,-0.353 -2.325,-0.591 -3.503,-0.81 -0.601,-0.112 -1.233,-0.186 -1.853,-0.298 0.035,0.046 0.067,0.094 0.101,0.141 1.815,0.597 3.412,1.968 4.928,3.043 0.83,0.589 1.691,1.144 2.614,1.578 0.915,0.43 1.833,0.659 2.785,0.902 0.047,-0.06 0.094,-0.12 0.139,-0.182 0.216,-0.3 0.397,-0.623 0.534,-0.959 m -1.56,-2.415 c 0.643,0.445 1.35,0.952 1.792,1.616 C 4.904,-4.317 4.793,-5.085 4.33,-5.777 3.556,-6.934 2.239,-7.554 0.907,-7.794 -0.866,-8.113 -2.66,-7.875 -4.442,-7.847 c 0.106,0.02 0.212,0.04 0.316,0.058 1.331,0.235 2.656,0.543 3.928,1.005 1.116,0.406 2.201,0.918 3.18,1.597 m -6.457,4.522 c -1.077,-1.041 -1.847,-2.354 -2.601,-3.634 -0.41,-0.695 -0.821,-1.389 -1.285,-2.05 -0.447,-0.637 -0.969,-1.187 -1.306,-1.891 -0.145,-0.301 0.108,-0.572 0.419,-0.459 0.111,0.04 0.216,0.089 0.319,0.143 0.026,-0.124 0.129,-0.223 0.29,-0.181 2.864,0.752 5.762,-0.284 8.653,0.077 2.101,0.262 4.325,1.495 4.789,3.726 0.474,2.275 -1.201,4.683 -3.186,5.662 -2.102,1.037 -4.503,0.143 -6.092,-1.393"
           style="fill:#a3c773;fill-opacity:1;fill-rule:nonzero;stroke:none"
           id="path1948"
           inkscape:connector-curvature="0" />
      </g>
      <g
         id="g3122"
         transform="translate(96.9686,135.4199)">
        <path
           d="m 0,0 c -1.355,-0.752 -2.957,-1.137 -4.436,-1.564 -1.538,-0.445 -3.091,-0.84 -4.659,-1.166 -1.794,-0.373 -3.603,-0.674 -5.421,-0.903 -1.596,-0.201 -3.267,-0.185 -4.83,-0.571 -0.449,0.449 -0.923,0.876 -1.375,1.323 0.017,0 0.035,0.002 0.053,0.005 2.104,0.421 4.242,0.716 6.381,0.897 0.99,0.084 1.984,0.15 2.977,0.201 0.931,0.047 1.91,-10e-4 2.818,0.216 0.222,0.054 0.198,0.368 -0.005,0.426 -0.913,0.259 -1.967,0.202 -2.911,0.184 -1.113,-0.021 -2.22,-0.106 -3.325,-0.238 -2.058,-0.246 -4.075,-0.669 -6.073,-1.213 -0.122,-0.033 -0.173,-0.123 -0.173,-0.215 -0.4,0.414 -0.774,0.851 -1.085,1.349 5.661,1.966 11.538,3.904 17.57,3.984 C -2.985,2.736 -1.416,2.686 0.071,2.404 0.552,2.313 1.511,2.131 1.445,1.476 1.382,0.843 0.497,0.276 0,0 m -20.802,-7.306 c -0.59,-0.692 -1.244,-1.329 -1.938,-1.914 -0.48,-0.405 -0.983,-0.78 -1.501,-1.133 -0.261,2.556 -1.022,5.656 -2.86,7.548 -0.111,0.113 -0.283,-0.016 -0.221,-0.156 0.567,-1.279 1.311,-2.442 1.804,-3.762 0.459,-1.226 0.766,-2.486 0.938,-3.783 0.004,-0.024 0.012,-0.043 0.023,-0.06 -0.988,-0.646 -2.03,-1.211 -3.096,-1.713 -1.172,-0.552 -2.382,-1.012 -3.611,-1.413 0.198,0.523 0.233,1.052 0.045,1.603 -0.031,0.091 -0.154,0.03 -0.148,-0.05 0.047,-0.557 -0.031,-1.132 -0.291,-1.63 -0.009,-0.018 -0.012,-0.035 -0.015,-0.053 -0.665,-0.209 -1.336,-0.403 -2.01,-0.583 -0.994,-0.267 -1.993,-0.517 -2.994,-0.755 -0.567,-0.134 -1.167,-0.251 -1.731,-0.444 0.096,0.351 0.16,0.747 0.128,1.052 1.041,2.2 1.458,4.69 1.612,7.098 0.088,1.365 0.092,2.753 -0.048,4.114 -0.07,0.679 -0.184,1.35 -0.291,2.023 -0.074,0.468 -0.101,0.981 -0.24,1.445 0.093,0.06 0.131,0.159 0.12,0.254 0.367,-0.07 0.736,-0.128 1.107,-0.181 0.194,-1.25 0.317,-2.516 0.367,-3.775 0.07,-1.743 -0.175,-3.507 -0.059,-5.24 0.016,-0.244 0.333,-0.273 0.412,-0.05 0.573,1.611 0.55,3.516 0.451,5.206 -0.076,1.282 -0.266,2.534 -0.551,3.775 1.673,-0.198 3.369,-0.234 5.05,-0.165 1.282,0.052 2.562,0.147 3.836,0.292 0.648,0.074 1.35,0.125 2.018,0.267 0.03,-1.061 1.009,-2.509 1.429,-3.071 0.748,-1 1.801,-1.959 2.956,-2.624 0.08,-0.119 0.201,-0.212 0.355,-0.244 0.052,-0.011 0.106,-0.019 0.159,-0.028 0.128,-0.062 0.256,-0.121 0.385,-0.175 -0.632,-0.462 -1.058,-1.051 -1.59,-1.675 m -18.257,-6.832 c -0.6,-0.263 -1.051,-1.157 -1.553,-1.597 -0.719,-0.63 -1.637,-0.941 -2.561,-1.121 -0.324,-0.063 -0.653,-0.108 -0.983,-0.145 1.136,1.527 1.794,3.431 2.248,5.248 0.325,1.304 0.544,2.632 0.689,3.968 0.126,1.16 0.351,2.447 0.162,3.608 -0.027,0.163 -0.258,0.144 -0.304,0.006 -0.378,-1.147 -0.356,-2.465 -0.515,-3.659 -0.163,-1.22 -0.352,-2.44 -0.634,-3.639 -0.481,-2.039 -1.313,-3.83 -2.342,-5.592 -1.226,-0.074 -2.473,0.003 -3.669,0.175 -1.323,0.19 -2.644,0.52 -3.913,0.975 1.138,0.883 2.07,2.16 2.123,3.607 0.005,0.151 -0.233,0.238 -0.301,0.087 -0.616,-1.371 -1.202,-2.585 -2.357,-3.495 -0.494,0.194 -0.979,0.407 -1.452,0.639 -0.854,0.421 -1.662,0.924 -2.461,1.441 -0.437,0.283 -0.867,0.577 -1.295,0.874 -0.254,0.176 -0.738,0.42 -1.023,0.702 0.04,0.064 0.075,0.13 0.102,0.195 1.31,0.798 2.447,1.919 3.499,3.008 1.371,1.42 2.591,2.967 3.704,4.596 1.063,1.557 2.028,3.173 2.929,4.829 0.463,0.851 0.912,1.709 1.352,2.571 0.188,0.369 0.428,0.794 0.589,1.232 0.206,-0.378 0.521,-0.756 0.877,-1.109 -0.807,-2.498 -2.094,-4.757 -3.508,-6.968 -0.089,-0.139 0.104,-0.298 0.224,-0.184 1.915,1.828 3.08,4.223 3.699,6.764 0.676,-0.594 1.401,-1.083 1.783,-1.326 1.08,-0.687 2.257,-1.188 3.498,-1.503 0.586,-0.149 1.321,-0.284 2.007,-0.246 -0.089,-0.815 0.186,-1.751 0.274,-2.499 0.173,-1.468 0.262,-2.952 0.209,-4.43 -0.085,-2.378 -0.589,-4.674 -1.042,-6.992 -0.019,-0.007 -0.035,-0.011 -0.055,-0.02 m -20.313,2.958 c -0.041,0.011 -0.085,0.02 -0.135,0.027 -0.564,0.069 -1.178,-0.207 -1.763,-0.161 -0.649,0.051 -1.281,0.291 -1.858,0.581 -0.072,0.035 -0.142,0.075 -0.212,0.113 0.026,0.002 0.054,0.009 0.083,0.027 1.086,0.665 2.327,1.264 3.265,2.133 0.124,0.115 -0.02,0.287 -0.163,0.229 -1.174,-0.479 -2.231,-1.337 -3.286,-2.033 -0.107,-0.07 -0.106,-0.193 -0.052,-0.275 -1.134,0.628 -2.15,1.468 -3.031,2.416 -0.866,0.933 -1.562,1.976 -2.106,3.091 1.276,-0.018 2.614,0.214 3.649,0.974 0.13,0.095 -0.002,0.306 -0.145,0.267 -1.26,-0.342 -2.427,-0.726 -3.726,-0.761 -0.576,1.307 -0.952,2.705 -1.153,4.138 0.474,-0.024 0.95,0.05 1.407,0.258 0.112,0.051 0.151,0.162 0.137,0.27 1.199,0.181 2.387,0.493 3.556,0.8 2.001,0.527 3.964,1.179 5.88,1.961 1.859,0.759 3.686,1.619 5.429,2.618 1.413,0.809 3.203,1.656 4.317,2.923 0.015,-0.293 0.067,-0.585 0.141,-0.848 -1.596,-1.516 -3.422,-2.712 -5.332,-3.817 -0.155,-0.09 -0.066,-0.354 0.116,-0.301 2.143,0.631 3.949,1.949 5.401,3.605 0.255,-0.582 0.707,-1.285 1.252,-1.661 -0.328,-0.335 -0.568,-0.798 -0.78,-1.188 -0.462,-0.85 -0.885,-1.723 -1.344,-2.575 -0.964,-1.792 -1.974,-3.567 -3.089,-5.27 -0.985,-1.503 -2.052,-2.964 -3.227,-4.324 -1.001,-1.157 -2.147,-2.152 -3.231,-3.217 M -72.381,3.015 c -0.859,1.261 -1.233,2.978 -1.586,4.438 -0.382,1.581 -0.636,3.202 -0.571,4.832 0.964,-0.571 2.189,-1.197 3.34,-1.114 0.143,0.01 0.175,0.19 0.04,0.246 -1.067,0.446 -2.171,0.639 -3.2,1.211 -0.059,0.033 -0.115,0.031 -0.163,0.01 0.077,1.243 0.28,2.596 0.618,3.836 1.378,-1.239 3.573,-1.835 5.212,-2.371 2.197,-0.718 4.459,-1.199 6.755,-1.457 2.183,-0.244 4.39,-0.286 6.582,-0.137 1.203,0.082 2.401,0.226 3.589,0.439 0.458,0.082 1.002,0.158 1.519,0.3 -1.63,-0.675 -3.313,-1.252 -5.022,-1.645 -1.112,-0.255 -2.243,-0.452 -3.377,-0.576 -1.19,-0.129 -2.408,-0.122 -3.587,-0.313 -0.196,-0.032 -0.18,-0.332 -10e-4,-0.375 2.134,-0.513 4.653,-0.1 6.75,0.392 1.876,0.44 3.66,1.076 5.339,1.971 -0.331,-1.167 -0.455,-2.513 0.225,-3.301 -0.664,-0.292 -1.245,-0.701 -1.863,-1.11 -0.873,-0.577 -1.765,-1.124 -2.674,-1.642 -1.695,-0.963 -3.421,-1.861 -5.209,-2.642 -1.732,-0.756 -3.507,-1.424 -5.311,-1.991 -1.467,-0.46 -2.98,-0.772 -4.45,-1.208 -1.1,0.589 -2.216,1.122 -2.955,2.207 m -0.134,19.42 c 0.025,0.042 0.05,0.085 0.075,0.127 0.926,-1.965 2.613,-3.795 4.782,-4.159 0.182,-0.031 0.314,0.209 0.135,0.315 -1.936,1.147 -3.636,2.313 -4.647,4.3 0.86,1.445 1.744,2.876 2.739,4.233 1.428,1.946 3.115,3.709 5.034,5.164 0.089,-1.548 0.621,-3.36 1.899,-4.322 0.127,-0.096 0.293,0.08 0.219,0.209 -0.341,0.596 -0.758,1.134 -1.062,1.754 -0.385,0.788 -0.594,1.642 -0.656,2.515 -0.003,0.044 -0.018,0.08 -0.039,0.11 1.076,0.783 2.222,1.473 3.434,2.043 0.033,-1.307 0.269,-2.558 0.75,-3.855 0.723,-1.95 1.802,-3.771 3.113,-5.382 1.434,-1.761 3.137,-3.304 4.924,-4.698 0.988,-0.772 2.009,-1.5 3.045,-2.206 0.244,-0.167 0.493,-0.347 0.747,-0.528 -1.587,0.504 -3.074,1.369 -4.437,2.302 -0.994,0.68 -1.952,1.413 -2.901,2.154 -0.942,0.734 -1.851,1.654 -2.916,2.204 -0.133,0.069 -0.316,-0.07 -0.226,-0.217 0.693,-1.135 1.884,-2.022 2.907,-2.85 1.066,-0.861 2.19,-1.668 3.349,-2.399 1.561,-0.984 3.197,-1.749 4.967,-1.963 -0.872,-0.708 -1.578,-1.727 -2.07,-2.638 -0.748,0.102 -1.581,-0.157 -2.296,-0.289 -1.077,-0.197 -2.165,-0.346 -3.256,-0.448 -2.179,-0.202 -4.373,-0.192 -6.551,0.02 -4.029,0.391 -7.841,1.514 -11.536,3.081 0.03,0.079 0.032,0.171 -0.009,0.27 -0.275,0.667 -0.578,1.505 -0.595,2.232 -0.026,1.059 0.558,2.039 1.078,2.921 m 13.335,12.693 c 0.24,1.352 1.146,2.174 2.216,2.826 -0.679,-2.236 -0.534,-4.868 0.976,-6.686 0.114,-0.137 0.296,0.025 0.237,0.169 -0.93,2.262 -1.406,4.529 -0.666,6.832 0.301,0.165 0.609,0.321 0.912,0.477 1.645,0.843 3.358,1.527 5.144,2.011 1.593,0.431 3.221,0.751 4.864,0.915 0.032,0.003 0.065,0.007 0.097,0.01 -1.185,-2.947 -1.934,-6.232 -1.493,-9.41 0.025,-0.178 0.288,-0.131 0.3,0.033 0.232,3.206 0.575,6.269 1.782,9.278 0.023,0.058 0.027,0.112 0.019,0.163 0.93,0.1 1.875,0.209 2.814,0.278 -0.06,-0.068 -0.119,-0.138 -0.175,-0.215 -0.017,-0.025 -0.029,-0.05 -0.037,-0.077 -1.754,-2.383 -2.519,-5.653 -2.52,-8.518 -0.002,-3.353 0.947,-7.167 3.133,-9.783 0.402,-0.481 0.873,-0.868 1.388,-1.146 -1.06,-0.253 -2.081,-0.635 -3.033,-1.288 -0.216,-0.148 -0.466,-0.335 -0.725,-0.549 -0.677,0.382 -1.355,0.756 -1.978,1.238 -0.918,0.71 -1.689,1.566 -2.322,2.536 -0.136,0.208 -0.461,0.029 -0.338,-0.19 0.907,-1.61 2.355,-3.274 4.127,-4.039 -0.5,-0.481 -0.966,-1.048 -1.204,-1.64 -0.557,0.449 -1.215,0.805 -1.795,1.191 -0.901,0.598 -1.792,1.21 -2.663,1.852 -1.761,1.296 -3.446,2.708 -4.907,4.341 -2.209,2.469 -3.943,5.515 -4.672,8.782 0.247,0.075 0.461,0.279 0.519,0.609 m 17.981,6.216 c 1.041,-0.028 2.104,-0.224 2.976,-0.816 1.188,-0.807 1.829,-2.221 2.242,-3.55 0.912,-2.937 1.5,-6.293 0.866,-9.343 -0.287,-1.383 -0.841,-2.995 -2.195,-3.67 -1.597,-0.797 -2.766,0.527 -3.497,1.817 -1.334,2.356 -1.95,5.004 -1.988,7.698 -0.04,2.801 0.663,5.311 1.596,7.864 m 18.264,-40.21 c 0.203,0.14 0.263,0.353 0.221,0.549 2.121,1.837 4.129,3.793 6.378,5.483 1.195,0.897 2.431,1.738 3.704,2.52 0.661,0.406 1.332,0.797 2.014,1.169 0.591,0.323 2.034,1.204 1.966,-0.218 -0.041,-0.856 -1.027,-1.602 -1.588,-2.124 -0.487,-0.451 -0.982,-0.894 -1.485,-1.327 -1.173,-1.01 -2.39,-1.97 -3.645,-2.877 -2.134,-1.54 -4.385,-2.901 -6.701,-4.145 2.6,2.421 5.375,4.665 7.895,7.167 0.097,0.097 -0.032,0.233 -0.14,0.156 -3.009,-2.133 -5.674,-4.801 -8.304,-7.374 -0.004,-0.004 -0.005,-0.008 -0.008,-0.012 -0.107,0.343 -0.221,0.678 -0.403,0.972 0.032,0.02 0.065,0.039 0.096,0.061 M 2.79,2.715 C 2.002,3.916 0.327,4.057 -0.969,4.183 -4.548,4.531 -8.185,4.094 -11.674,3.281 c -1.637,-0.382 -3.248,-0.85 -4.844,-1.366 2.881,1.836 5.588,3.97 7.943,6.346 0.806,0.813 1.502,1.885 1.143,3.074 -0.305,1.011 -1.225,1.622 -2.272,1.357 -1.217,-0.307 -2.471,-1.27 -3.52,-1.93 -1.259,-0.793 -2.481,-1.646 -3.661,-2.553 -2.298,-1.766 -4.558,-3.71 -6.288,-6.052 -0.002,0 -0.004,10e-4 -0.006,0.002 -1.124,0.249 -2.368,-0.122 -3.491,-0.28 -1.193,-0.168 -2.391,-0.293 -3.592,-0.374 -1.813,-0.124 -3.628,-0.154 -5.442,-0.195 -0.011,0.041 -0.022,0.082 -0.033,0.123 -0.088,0.309 -0.527,0.168 -0.473,-0.135 -0.731,-0.018 -1.461,-0.039 -2.191,-0.071 -0.101,-0.005 -0.174,-0.058 -0.219,-0.129 -0.345,0.081 -0.691,0.15 -1.009,0.235 -0.872,0.232 -1.707,0.498 -2.528,0.878 -0.799,0.369 -1.558,0.797 -2.265,1.323 -0.469,0.348 -1.586,1.111 -1.948,1.828 0.034,0.04 0.063,0.084 0.086,0.135 0.271,0.612 -0.467,1.085 -0.818,1.471 -0.304,0.335 -0.513,0.722 -0.693,1.135 -0.219,0.503 -0.273,1.067 -0.475,1.57 -0.07,0.695 -0.338,1.311 -0.268,2.033 0.073,0.759 0.357,1.51 0.66,2.205 0.314,0.721 0.717,1.432 1.192,2.061 0.237,0.314 0.508,0.595 0.787,0.866 0.097,-0.033 0.195,-0.063 0.294,-0.088 0.011,-0.02 0.02,-0.039 0.032,-0.059 0.11,-0.178 0.315,-0.204 0.493,-0.121 0.524,0.243 0.875,0.76 1.186,1.227 0.48,0.721 1.027,1.332 1.722,1.855 1.214,0.914 2.722,1.583 4.178,2.158 0.376,0.03 0.757,0.113 1.138,0.259 1.666,0.642 2.692,2.159 3.25,3.795 1.258,3.692 0.567,8.074 -0.62,11.698 -0.594,1.816 -1.544,3.642 -3.244,4.646 -0.98,0.578 -2.232,0.905 -3.292,0.595 -0.098,0.133 -0.329,0.181 -0.461,0.053 -0.046,-0.045 -0.089,-0.094 -0.134,-0.141 -0.709,0.187 -1.409,0.357 -2.166,0.409 -0.956,0.067 -1.908,0.059 -2.863,-0.009 -2.041,-0.145 -4.038,-0.534 -5.983,-1.168 -1.852,-0.603 -3.648,-1.379 -5.319,-2.383 -1.449,-0.871 -3.169,-2.229 -3.009,-4.07 -4.187,-0.878 -7.485,-3.836 -10.118,-7.142 -1.593,-2 -3.283,-4.245 -4.268,-6.619 -0.559,-1.346 -0.778,-3.764 0.543,-4.666 -0.354,-0.599 -0.675,-1.177 -0.899,-1.896 -0.301,-0.964 -0.494,-1.966 -0.584,-2.972 -0.179,-2.001 0.074,-3.993 0.558,-5.934 0.424,-1.702 0.885,-3.514 2.068,-4.862 0.627,-0.714 1.504,-1.347 2.45,-1.644 -0.574,-5.151 2.974,-10.479 7.774,-12.289 0.95,-0.358 2.285,-0.659 3.26,-0.185 0.373,-0.883 1.616,-1.791 2.13,-2.203 1.344,-1.076 2.924,-1.899 4.513,-2.549 3.223,-1.319 6.922,-1.82 10.367,-1.209 1.435,0.254 3.071,0.878 4.012,2.065 0.9,-0.08 1.837,0.12 2.715,0.272 1.138,0.196 2.274,0.408 3.399,0.671 2.203,0.516 4.386,1.176 6.451,2.11 1.81,0.819 3.523,1.909 5.031,3.204 1.357,1.166 3.177,2.758 3.147,4.686 -0.001,0.031 -0.007,0.059 -0.013,0.087 1.372,-0.009 2.788,0.246 4.112,0.418 1.873,0.243 3.736,0.563 5.582,0.959 1.906,0.409 3.798,0.876 5.667,1.432 1.512,0.45 3.171,0.862 4.444,1.841 1.075,0.827 1.995,2.352 1.146,3.646"
           style="fill:#a3c773;fill-opacity:1;fill-rule:nonzero;stroke:none"
           id="path3124"
           inkscape:connector-curvature="0" />
      </g>
      <g
         id="g3126"
         transform="translate(29.1142,140.7068)">
        <path
           d="M 0,0 C -1.801,-0.327 -3.55,-0.401 -5.303,0.204 -5.543,0.287 -5.628,-0.079 -5.402,-0.17 -3.631,-0.889 -1.679,-1.053 0.086,-0.234 0.219,-0.172 0.136,0.025 0,0"
           style="fill:#a3c773;fill-opacity:1;fill-rule:nonzero;stroke:none"
           id="path3128"
           inkscape:connector-curvature="0" />
      </g>
      <g
         id="g3130"
         transform="translate(72.5469,94.4911)">
        <path
           d="m 0,0 c -2.307,-2.945 -7.147,-4.199 -10.639,-2.927 -3.448,1.255 -5.54,4.719 -5.101,8.346 0.234,1.932 1.199,3.695 2.67,4.964 3.681,3.172 10.026,3.491 13.145,-0.599 C 2.304,6.862 2.261,2.885 0,0 m 1.985,9.885 c -1.071,1.758 -2.722,3.139 -4.642,3.883 -2.29,0.888 -4.684,0.639 -6.968,-0.156 -1.623,-0.565 -3.611,-1.299 -4.925,-2.428 -1.245,-1.072 -2.169,-2.489 -2.647,-4.061 -1.297,-4.267 0.58,-8.966 4.542,-11.067 C -8.677,-6.053 -2.82,-5.14 0.404,-1.996 3.577,1.1 4.308,6.073 1.985,9.885"
           style="fill:#a3c773;fill-opacity:1;fill-rule:nonzero;stroke:none"
           id="path3132"
           inkscape:connector-curvature="0" />
      </g>
      <g
         id="g3134"
         transform="translate(68.1057,99.6333)">
        <path
           d="m 0,0 c -0.137,-1.693 -1.209,-2.607 -2.857,-2.676 -0.749,-0.031 -1.687,-0.023 -2.233,0.56 -0.497,0.53 -0.517,1.367 -0.319,2.034 0.331,1.115 1.332,2.185 2.556,2.148 C -1.706,2.032 0.116,1.433 0,0 M 3.47,2.687 C 2.978,2.682 2.564,2.457 2.131,2.243 1.735,2.047 1.339,1.851 0.943,1.656 0.737,2.01 0.447,2.321 0.071,2.572 -0.204,2.754 -0.497,2.889 -0.8,2.984 -0.501,3.742 -0.265,4.629 -0.592,5.229 -0.662,5.358 -0.836,5.337 -0.909,5.228 -1.176,4.828 -1.143,4.27 -1.213,3.802 -1.247,3.568 -1.294,3.337 -1.349,3.108 -1.919,3.192 -2.51,3.144 -3.078,2.984 -3.689,2.812 -4.291,2.565 -4.827,2.232 -4.883,2.523 -4.973,2.807 -5.109,3.073 -5.272,3.392 -5.541,3.95 -5.967,3.909 -6.031,3.902 -6.105,3.865 -6.118,3.793 -6.184,3.438 -5.876,3.173 -5.71,2.885 -5.531,2.577 -5.39,2.246 -5.298,1.902 -5.914,1.413 -6.394,0.78 -6.616,-0.028 c -0.052,-0.192 -0.089,-0.388 -0.11,-0.586 -0.37,0.102 -0.745,0.194 -1.122,0.255 -0.376,0.06 -0.759,0.137 -1.065,-0.124 -0.065,-0.056 -0.066,-0.181 -10e-4,-0.237 0.249,-0.219 0.535,-0.196 0.854,-0.199 0.444,-0.005 0.877,-0.025 1.314,-0.087 0.004,-0.713 0.224,-1.419 0.701,-1.967 0.046,-0.054 0.094,-0.104 0.144,-0.152 -0.34,-0.577 -0.684,-1.202 -0.741,-1.845 -0.015,-0.169 0.207,-0.221 0.313,-0.126 0.443,0.395 0.726,0.996 0.969,1.575 0.69,-0.382 1.535,-0.465 2.321,-0.453 0.041,0.001 0.083,0.002 0.124,0.003 -0.105,-0.92 -0.251,-2.047 0.157,-2.869 0.077,-0.156 0.313,-0.101 0.354,0.052 0.232,0.869 0.005,1.93 -0.01,2.845 0.92,0.08 1.808,0.334 2.494,1.004 C 0.849,-2.189 1.25,-1.058 1.311,0 1.334,0.402 1.288,0.786 1.173,1.139 1.557,1.321 1.94,1.504 2.324,1.687 2.784,1.906 3.243,2.096 3.57,2.503 3.629,2.576 3.554,2.688 3.47,2.687"
           style="fill:#a3c773;fill-opacity:1;fill-rule:nonzero;stroke:none"
           id="path3136"
           inkscape:connector-curvature="0" />
      </g>
      <g
         id="g3138"
         transform="translate(68.9192,95.59)">
        <path
           d="m 0,0 c -0.131,0.294 -0.307,0.552 -0.519,0.793 -0.204,0.232 -0.538,-0.123 -0.33,-0.352 0.19,-0.209 0.348,-0.446 0.458,-0.707 0.084,-0.2 0.115,-0.454 0.282,-0.604 0.064,-0.058 0.178,-0.062 0.223,0.024 0.141,0.268 0,0.59 -0.114,0.846"
           style="fill:#a3c773;fill-opacity:1;fill-rule:nonzero;stroke:none"
           id="path3140"
           inkscape:connector-curvature="0" />
      </g>
      <g
         id="g3142"
         transform="translate(71.5577,97.2386)">
        <path
           d="M 0,0 C -0.258,0.264 -0.617,0.399 -0.954,0.535 -1.321,0.685 -1.679,0.853 -2.03,1.037 -2.39,1.226 -2.658,0.667 -2.306,0.473 -1.667,0.12 -0.834,-0.404 -0.073,-0.271 0.05,-0.249 0.079,-0.081 0,0"
           style="fill:#a3c773;fill-opacity:1;fill-rule:nonzero;stroke:none"
           id="path3144"
           inkscape:connector-curvature="0" />
      </g>
      <g
         id="g3194"
         transform="translate(139.0843,150.1294)">
        <path
           d="m 0,0 c -3.696,0.578 -7.152,4.19 -7.746,7.859 -0.586,3.622 1.417,7.138 4.797,8.524 1.801,0.738 3.811,0.757 5.636,0.091 C 7.252,14.809 10.626,9.426 8.578,4.708 7.114,1.337 3.622,-0.566 0,0 m 9.597,3.089 c 1.012,1.793 1.412,3.908 1.125,5.947 -0.342,2.433 -1.727,4.401 -3.536,6.007 -1.285,1.141 -2.895,2.519 -4.522,3.114 -1.543,0.564 -3.23,0.679 -4.836,0.33 -4.357,-0.95 -7.544,-4.881 -7.445,-9.364 0.1,-4.501 3.754,-9.169 8.072,-10.449 4.25,-1.26 8.948,0.529 11.142,4.415"
           style="fill:#a3c773;fill-opacity:1;fill-rule:nonzero;stroke:none"
           id="path3196"
           inkscape:connector-curvature="0" />
      </g>
      <g
         id="g3198"
         transform="translate(141.4063,156.5149)">
        <path
           d="m 0,0 c -1.545,-0.707 -2.865,-0.216 -3.73,1.189 -0.392,0.638 -0.842,1.461 -0.6,2.222 0.22,0.692 0.94,1.118 1.62,1.27 C -1.576,4.936 -0.153,4.585 0.412,3.498 0.942,2.481 1.307,0.598 0,0 m 4.038,-1.718 c -0.244,0.427 -0.643,0.679 -1.04,0.952 -0.364,0.25 -0.729,0.5 -1.093,0.751 0.21,0.352 0.339,0.757 0.374,1.208 C 2.304,1.522 2.28,1.843 2.214,2.154 3.023,2.263 3.911,2.489 4.276,3.068 4.354,3.192 4.251,3.333 4.12,3.344 3.64,3.382 3.169,3.081 2.727,2.913 2.506,2.83 2.282,2.758 2.055,2.694 1.85,3.232 1.52,3.725 1.103,4.143 0.655,4.592 0.146,4.997 -0.406,5.302 -0.18,5.494 0.024,5.71 0.19,5.959 0.389,6.257 0.745,6.764 0.501,7.115 0.464,7.169 0.395,7.214 0.326,7.191 -0.016,7.076 -0.097,6.678 -0.267,6.392 -0.449,6.086 -0.669,5.801 -0.924,5.553 -1.652,5.852 -2.439,5.962 -3.252,5.761 -3.445,5.714 -3.634,5.65 -3.818,5.571 -3.909,5.944 -4.012,6.316 -4.142,6.675 -4.273,7.033 -4.393,7.405 -4.77,7.544 -4.851,7.574 -4.96,7.514 -4.978,7.43 -5.048,7.106 -4.888,6.867 -4.735,6.587 -4.522,6.198 -4.329,5.809 -4.169,5.397 -4.789,5.047 -5.299,4.51 -5.545,3.826 -5.569,3.76 -5.589,3.693 -5.607,3.627 -6.276,3.642 -6.99,3.637 -7.579,3.373 -7.734,3.304 -7.671,3.085 -7.536,3.038 c 0.56,-0.193 1.223,-0.147 1.847,-0.077 0.003,-0.788 0.344,-1.566 0.737,-2.247 0.021,-0.036 0.043,-0.071 0.064,-0.107 -0.855,-0.357 -1.91,-0.779 -2.428,-1.536 -0.099,-0.144 0.064,-0.323 0.217,-0.284 0.873,0.221 1.688,0.937 2.479,1.396 0.519,-0.764 1.174,-1.415 2.093,-1.687 1.03,-0.305 2.214,-0.103 3.167,0.359 0.362,0.176 0.674,0.404 0.927,0.676 0.346,-0.245 0.693,-0.491 1.039,-0.737 0.416,-0.295 0.806,-0.602 1.321,-0.689 0.092,-0.016 0.153,0.104 0.111,0.177"
           style="fill:#a3c773;fill-opacity:1;fill-rule:nonzero;stroke:none"
           id="path3200"
           inkscape:connector-curvature="0" />
      </g>
      <g
         id="g3202"
         transform="translate(138.2737,153.8322)">
        <path
           d="M 0,0 C 0.193,0.257 0.332,0.538 0.439,0.84 0.542,1.131 0.07,1.249 -0.029,0.956 -0.119,0.688 -0.249,0.435 -0.423,0.212 -0.557,0.04 -0.763,-0.11 -0.813,-0.33 -0.832,-0.413 -0.78,-0.515 -0.683,-0.512 -0.38,-0.504 -0.168,-0.224 0,0"
           style="fill:#a3c773;fill-opacity:1;fill-rule:nonzero;stroke:none"
           id="path3204"
           inkscape:connector-curvature="0" />
      </g>
      <g
         id="g3206"
         transform="translate(141,152.3333)">
        <path
           d="M 0,0 C 0.104,0.354 0.047,0.733 0.002,1.093 -0.047,1.487 -0.075,1.882 -0.085,2.278 -0.096,2.685 -0.715,2.646 -0.712,2.244 -0.709,1.514 -0.759,0.531 -0.272,-0.068 -0.193,-0.165 -0.032,-0.109 0,0"
           style="fill:#a3c773;fill-opacity:1;fill-rule:nonzero;stroke:none"
           id="path3208"
           inkscape:connector-curvature="0" />
      </g>
      <g
         id="g3242"
         transform="translate(117.1644,196.365)">
        <path
           d="m 0,0 c -2.165,-2.346 -4.885,-3.735 -7.912,-4.649 -3.148,-0.95 -6.393,-1.664 -9.608,-2.349 -3.226,-0.687 -6.48,-1.247 -9.767,-1.543 -6.474,-0.584 -13.102,-0.163 -19.149,2.394 -5.658,2.393 -10.618,6.458 -13.081,12.191 -2.195,5.114 -2.762,10.751 -1.706,16.213 1.149,5.941 4.279,11.692 9.063,15.473 2.475,1.956 5.252,3.436 8.457,3.535 2.114,0.066 4.257,-0.318 6.345,-0.606 1.772,-0.244 8.467,-2.532 8.972,-2.681 3.177,-0.941 6.55,-1.011 9.837,-1.237 3.051,-0.211 6.042,-0.537 8.968,-1.472 C -4.341,33.596 0.534,30.253 3.241,25.378 6.16,20.123 5.946,13.313 4.253,7.695 3.403,4.872 2.006,2.175 0,0 m -35.374,45.31 c -1.286,1.194 -2.472,2.505 -3.509,3.921 -0.508,0.693 -0.981,1.411 -1.421,2.149 -0.243,0.408 -0.7,1.033 -0.883,1.63 2.763,-1.507 5.24,-3.943 7.397,-6.12 0.495,-0.499 0.974,-1.013 1.444,-1.536 -0.68,0.643 -1.397,1.266 -2.183,1.722 -0.15,0.088 -0.329,-0.119 -0.227,-0.257 0.799,-1.076 1.933,-2.006 2.898,-2.927 0.893,-0.852 1.795,-1.694 2.692,-2.542 0.167,-0.237 0.333,-0.474 0.5,-0.71 -0.054,0.027 -0.108,0.054 -0.162,0.083 -0.767,0.4 -1.511,0.839 -2.239,1.305 -1.528,0.979 -2.976,2.046 -4.307,3.282 m 7.427,0.634 c -0.512,1.94 -0.86,3.942 -1.002,5.943 -0.244,3.456 0.058,6.943 0.942,10.29 1.546,-3.199 2.357,-6.792 2.485,-10.319 0.118,-3.283 -0.571,-6.353 -1.258,-9.483 -10e-4,10e-4 -10e-4,10e-4 -10e-4,0.002 -0.056,1.531 -0.069,3.066 -0.044,4.597 0.025,1.43 0.21,2.915 0.048,4.339 -0.02,0.172 -0.253,0.192 -0.301,0.024 -0.428,-1.53 -0.371,-3.246 -0.368,-4.823 0.001,-0.827 0.033,-1.652 0.084,-2.476 -0.213,0.629 -0.415,1.262 -0.585,1.906 m 2.119,-6.885 c 0.017,0.007 0.034,0.016 0.046,0.034 1.254,1.726 2.233,3.611 3.574,5.287 1.376,1.72 2.893,3.329 4.561,4.77 1.624,1.403 3.387,2.657 5.244,3.733 0.944,0.547 1.919,1.027 2.897,1.508 0.887,0.436 1.856,0.757 2.699,1.269 0.112,0.068 0.061,0.267 -0.077,0.251 -2.106,-0.24 -4.281,-1.464 -6.094,-2.502 -1.925,-1.102 -3.727,-2.405 -5.389,-3.872 -1.195,-1.055 -2.318,-2.194 -3.345,-3.413 0.96,1.398 1.997,2.741 3.149,3.99 1.598,1.734 3.382,3.271 5.392,4.512 0.951,0.587 1.945,1.125 2.989,1.527 0.544,0.21 1.101,0.386 1.685,0.433 0.432,0.034 0.855,-0.017 1.281,-0.018 0.517,-0.498 0.969,-1.131 0.762,-1.769 -0.334,-1.029 -1.966,-1.52 -2.838,-1.932 -2.194,-1.037 -4.354,-2.165 -6.405,-3.465 -3.92,-2.483 -7.954,-5.798 -9.626,-10.259 -0.031,-0.084 -0.045,-0.161 -0.051,-0.234 -0.167,0.02 -0.335,0.041 -0.502,0.063 0.017,0.029 0.032,0.058 0.048,0.087 m 10.804,4.473 c 2.612,1.02 5.392,1.622 8.192,1.802 -2.123,-1.954 -4.567,-3.495 -7.259,-4.598 -1.625,-0.667 -3.321,-1.155 -5.049,-1.467 -0.909,-0.165 -1.828,-0.285 -2.749,-0.356 -0.442,-0.034 -0.9,-0.035 -1.353,-0.069 2.578,1.835 5.258,3.531 8.218,4.688 M 7.06,20.929 c -1.321,5.937 -5.358,10.648 -10.551,13.663 -2.531,1.469 -5.328,2.526 -8.185,3.15 -1.728,0.377 -3.477,0.56 -5.234,0.668 1.025,0.268 2.035,0.595 3.023,0.979 3.521,1.367 6.759,3.521 9.414,6.205 0.446,0.451 0.166,1.269 -0.496,1.278 -5.761,0.077 -12.104,-1.711 -16.645,-5.495 0.991,1.218 2.053,2.372 3.261,3.408 2.09,1.795 4.42,3.295 6.834,4.616 1.203,0.659 2.434,1.263 3.674,1.851 1.098,0.52 2.305,1.096 2.957,2.176 1.018,1.687 0.174,3.268 -1.265,4.043 -0.021,0.17 -0.089,0.331 -0.208,0.447 -1.801,1.751 -5.137,-0.033 -6.899,-0.995 -2.306,-1.26 -4.385,-2.925 -6.212,-4.809 -1.903,-1.964 -3.555,-4.237 -4.85,-6.644 -0.06,-0.111 -0.118,-0.224 -0.177,-0.336 0.473,2.308 0.534,4.741 0.395,6.98 -0.265,4.257 -1.504,8.257 -3.507,12.007 -0.259,0.485 -0.976,0.444 -1.162,-0.081 -1.426,-4.029 -2,-8.311 -1.62,-12.571 0.186,-2.077 0.569,-4.117 1.188,-6.11 0.216,-0.697 0.452,-1.399 0.725,-2.086 -1.194,1.827 -2.639,3.528 -4.018,5.056 -2.538,2.812 -5.534,5.572 -9.2,6.723 -0.458,0.144 -0.831,-0.198 -0.988,-0.586 -0.664,-1.638 0.759,-3.519 1.602,-4.822 1.088,-1.68 2.35,-3.255 3.757,-4.679 1.372,-1.39 2.889,-2.639 4.507,-3.733 0.313,-0.212 0.633,-0.411 0.957,-0.605 -2.057,0.543 -4.122,1.058 -6.184,1.595 -1.776,0.463 -3.564,0.926 -5.4,1.068 -1.693,0.13 -3.398,-0.222 -4.972,-0.842 -6.126,-2.412 -10.735,-8.04 -13.195,-14.001 -2.298,-5.569 -2.944,-11.869 -1.615,-17.759 1.416,-6.277 5.084,-11.696 10.367,-15.373 11.916,-8.294 27.242,-6.154 40.473,-2.958 3.261,0.788 6.626,1.557 9.576,3.217 2.755,1.552 4.954,3.833 6.616,6.507 3.373,5.428 4.647,12.598 3.257,18.848"
           style="fill:#a3c773;fill-opacity:1;fill-rule:nonzero;stroke:none"
           id="path3244"
           inkscape:connector-curvature="0" />
      </g>
      <g
         id="g3246"
         transform="translate(101.1502,238.3813)">
        <path
           d="m 0,0 c -1.554,-0.311 -2.988,-1.149 -4.333,-1.954 -0.113,-0.067 -0.012,-0.223 0.102,-0.171 1.429,0.654 2.963,1.126 4.343,1.879 C 0.257,-0.167 0.141,0.028 0,0"
           style="fill:#a3c773;fill-opacity:1;fill-rule:nonzero;stroke:none"
           id="path3248"
           inkscape:connector-curvature="0" />
      </g>
      <g
         id="g3250"
         transform="translate(60.543,204.3089)">
        <path
           d="m 0,0 c -0.531,1.972 -1.331,3.857 -1.823,5.845 -0.46,1.863 -0.735,3.78 -0.715,5.702 0.043,3.959 1.358,7.943 4.115,10.84 0.182,0.192 -0.126,0.45 -0.31,0.266 C -1.735,19.662 -3.112,15.494 -3.132,11.308 -3.151,7.511 -2.291,3.139 -0.3,-0.143 -0.198,-0.311 0.048,-0.178 0,0"
           style="fill:#a3c773;fill-opacity:1;fill-rule:nonzero;stroke:none"
           id="path3252"
           inkscape:connector-curvature="0" />
      </g>
      <g
         id="g3254"
         transform="translate(113.9471,226.1958)">
        <path
           d="m 0,0 c -0.191,0.113 -0.399,-0.201 -0.215,-0.331 1.483,-1.042 2.547,-2.536 3.149,-4.241 0.664,-1.881 0.38,-3.728 0.373,-5.669 -10e-4,-0.19 0.262,-0.184 0.311,-0.024 C 4.856,-6.249 3.693,-2.19 0,0"
           style="fill:#a3c773;fill-opacity:1;fill-rule:nonzero;stroke:none"
           id="path3256"
           inkscape:connector-curvature="0" />
      </g>
      <g
         id="g3258"
         transform="translate(108.6458,194.4541)">
        <path
           d="m 0,0 c -1.856,-0.292 -3.668,-0.868 -5.497,-1.291 -1.718,-0.397 -3.445,-0.754 -5.179,-1.07 -3.507,-0.638 -7.056,-1.153 -10.616,-1.365 -6.998,-0.416 -14.38,0.387 -20.17,4.684 -0.198,0.147 -0.445,-0.129 -0.254,-0.293 8.716,-7.474 21.847,-5.639 32.217,-3.606 3.181,0.624 6.613,1.186 9.612,2.455 C 0.365,-0.379 0.294,0.046 0,0"
           style="fill:#a3c773;fill-opacity:1;fill-rule:nonzero;stroke:none"
           id="path3260"
           inkscape:connector-curvature="0" />
      </g>
      <g
         id="g3262"
         transform="translate(97.1762,230.6851)">
        <path
           d="m 0,0 c -1.868,-0.424 -3.647,-0.813 -5.579,-0.624 -1.771,0.173 -3.552,0.716 -5.116,1.569 -0.152,0.083 -0.254,-0.139 -0.12,-0.233 C -7.804,-1.394 -3.19,-2.221 0.143,-0.3 0.318,-0.199 0.174,0.04 0,0"
           style="fill:#a3c773;fill-opacity:1;fill-rule:nonzero;stroke:none"
           id="path3264"
           inkscape:connector-curvature="0" />
      </g>
    </g>
  </g>
</svg>
